{
	"asset":{
		"generator":"Khronos glTF Blender I/O v5.0.21",
		"version":"2.0"
	},
	"scene":0,
	"scenes":[
		{
			"name":"Scene",
			"nodes":[
				0
			]
		}
	],
	"nodes":[
		{
			"mesh":0,
			"name":"dragon_vrip",
			"rotation":[
				0.7071068286895752,
				0,
				0,
				0.7071068286895752
			]
		}
	],
	"materials":[
		{
			"doubleSided":true,
			"emissiveFactor":[
				1,
				1,
				1
			],
			"name":"Material.001",
			"pbrMetallicRoughness":{
				"baseColorFactor":[
					0,
					0,
					0,
					1
				]
			}
		}
	],
	"meshes":[
		{
			"name":"dragon_vrip",
			"primitives":[
				{
					"attributes":{
						"POSITION":0,
						"NORMAL":1,
						"TEXCOORD_0":2
					},
					"indices":3,
					"material":0
				}
			]
		}
	],
	"accessors":[
		{
			"bufferView":0,
			"componentType":5126,
			"count":516670,
			"max":[
				1.0813217163085938,
				0.4913327693939209,
				0.579694390296936
			],
			"min":[
				-0.9675803184509277,
				-0.42488521337509155,
				-0.8647406101226807
			],
			"type":"VEC3"
		},
		{
			"bufferView":1,
			"componentType":5126,
			"count":516670,
			"type":"VEC3"
		},
		{
			"bufferView":2,
			"componentType":5126,
			"count":516670,
			"type":"VEC2"
		},
		{
			"bufferView":3,
			"componentType":5125,
			"count":2614242,
			"type":"SCALAR"
		}
	],
	"bufferViews":[
		{
			"buffer":0,
			"byteLength":6200040,
			"byteOffset":0,
			"target":34962
		},
		{
			"buffer":0,
			"byteLength":6200040,
			"byteOffset":6200040,
			"target":34962
		},
		{
			"buffer":0,
			"byteLength":4133360,
			"byteOffset":12400080,
			"target":34962
		},
		{
			"buffer":0,
			"byteLength":10456968,
			"byteOffset":16533440,
			"target":34963
		}
	],
	"buffers":[
		{
			"byteLength":26990408,
			"uri":"Dragon.bin"
		}
	]
}
